<svg width="130" height="74" viewBox="0 0 130 74" fill="none" xmlns="http://www.w3.org/2000/svg">
<g id="Logo Alura Include" clip-path="url(#clip0_30_5)">
<g id="a-2">
<path id="Vector" d="M74.6322 69.0536H75.604C75.8644 69.0362 76.1247 69.1058 76.3503 69.2623C76.5239 69.4188 76.628 69.6448 76.6106 69.8708C76.628 70.0969 76.5412 70.3403 76.385 70.5142C76.2115 70.688 75.9859 70.7924 75.7429 70.8271V70.8445C76.1247 70.9141 76.4024 71.2618 76.385 71.6617C76.4024 71.9747 76.2635 72.2877 76.0206 72.4963C75.7429 72.7049 75.3784 72.8267 75.0313 72.7919H73.8685L74.6322 69.0536ZM74.4933 70.9488L74.1462 72.5658H75.014C75.2917 72.5832 75.5693 72.4963 75.795 72.3398C75.9859 72.1833 76.09 71.9399 76.0726 71.6791C76.09 71.4705 76.0032 71.2618 75.847 71.1227C75.6388 70.9836 75.3958 70.9315 75.1528 70.9488H74.4933ZM74.5454 70.7228H75.2569C75.5346 70.7402 75.8123 70.6706 76.0553 70.5142C76.2462 70.3751 76.3503 70.149 76.333 69.9056C76.3503 69.7317 76.2635 69.5579 76.1421 69.4361C75.9685 69.3144 75.7602 69.2623 75.552 69.2797H74.8578L74.5454 70.7228Z" fill="#2B2B2B"/>
<path id="Vector_2" d="M76.9577 70.01H77.2181L77.4263 71.4184C77.5131 72.0095 77.5652 72.3921 77.5652 72.5659H77.5999C77.6693 72.3921 77.8255 72.0791 78.0685 71.627L78.9536 70.01H79.2139L77.3916 73.3136C77.3048 73.4701 77.2007 73.6265 77.0792 73.7656C76.9924 73.8526 76.8883 73.9221 76.7842 73.9743C76.6627 74.0265 76.5412 74.0612 76.4197 74.0438C76.3156 74.0438 76.1941 74.0265 76.09 73.9917V73.7483C76.1941 73.8004 76.3156 73.8178 76.4371 73.8178C76.5759 73.8178 76.6974 73.7656 76.8189 73.6961C76.9577 73.5744 77.0619 73.4353 77.1486 73.2788C77.2528 73.0875 77.3395 72.9311 77.409 72.8093L76.9577 70.01Z" fill="#2B2B2B"/>
<path id="Vector_3" d="M82.4592 71.7661H81.227L80.689 72.8093H80.0469L82.0427 69.071H82.7369L83.1535 72.8093H82.5634L82.4592 71.7661ZM82.4245 71.2271C82.3551 70.5142 82.3204 70.0969 82.303 69.9404C82.2857 69.7839 82.2857 69.6796 82.2857 69.5927C82.1989 69.8187 82.0774 70.0795 81.9212 70.3751L81.4874 71.2271H82.4245Z" fill="#2B2B2B"/>
<path id="Vector_4" d="M84.1601 72.7917H83.5701L84.4205 68.8101H85.0279L84.1601 72.7917Z" fill="#2B2B2B"/>
<path id="Vector_5" d="M86.1733 69.9751L85.8436 71.5399C85.8089 71.6964 85.7742 71.8703 85.7568 72.0268C85.7568 72.2528 85.8609 72.3745 86.0865 72.3745C86.2254 72.3745 86.3469 72.3224 86.451 72.2354C86.5898 72.1137 86.694 71.9746 86.7807 71.8008C86.8849 71.5921 86.9543 71.3835 86.989 71.1748L87.2493 69.9751H87.8394L87.2493 72.8092H86.7807L86.8328 72.2876H86.8155C86.694 72.4615 86.5551 72.618 86.3816 72.7223C86.2427 72.8092 86.0692 72.8614 85.8956 72.8614C85.7047 72.8788 85.5138 72.8092 85.375 72.6701C85.2361 72.5136 85.1841 72.3224 85.1841 72.1137C85.1841 72.0094 85.2014 71.9051 85.2188 71.8008C85.2361 71.6964 85.2535 71.5921 85.2709 71.4878L85.5832 69.9925L86.1733 69.9751Z" fill="#2B2B2B"/>
<path id="Vector_6" d="M90.0088 69.9229C90.0956 69.9229 90.1997 69.9402 90.2865 69.9576L90.1477 70.514C90.0609 70.4966 89.9741 70.4792 89.8873 70.4792C89.6617 70.4792 89.4535 70.5836 89.3146 70.7748C89.1411 71.0009 89.0196 71.2617 88.9675 71.5399L88.6898 72.8265H88.0824L88.6898 69.9924H89.1584L89.1064 70.514H89.1237C89.2278 70.3401 89.384 70.1837 89.5402 70.0793C89.6964 69.9576 89.8526 69.9229 90.0088 69.9229Z" fill="#2B2B2B"/>
<path id="Vector_7" d="M91.1195 72.844C90.8939 72.8613 90.6856 72.757 90.5468 72.5831C90.3906 72.3745 90.3212 72.1137 90.3385 71.8529C90.3385 71.5225 90.3906 71.1922 90.5121 70.8792C90.6162 70.601 90.7898 70.3576 90.998 70.1663C91.189 69.9925 91.4319 69.9055 91.6923 69.9055C91.8484 69.9055 91.9873 69.9403 92.1261 70.0272C92.2476 70.1142 92.3517 70.2359 92.4038 70.375H92.4385L92.5947 69.9751H93.0633L92.4559 72.8092H91.9699L92.022 72.3571H92.0046C91.7443 72.6875 91.4493 72.844 91.1195 72.844ZM91.3451 72.3571C91.5013 72.3397 91.6575 72.2702 91.7617 72.1659C91.9005 72.0094 92.022 71.8355 92.0914 71.6269C92.1782 71.4008 92.2303 71.14 92.2303 70.8966C92.2303 70.7575 92.1955 70.6358 92.1088 70.5315C92.022 70.4445 91.9179 70.3924 91.7964 70.3924C91.6402 70.3924 91.484 70.4619 91.3799 70.5836C91.241 70.7401 91.1369 70.914 91.0675 71.1226C90.998 71.3487 90.946 71.5747 90.946 71.8181C90.9286 71.9572 90.9807 72.0963 91.0501 72.2006C91.1195 72.3223 91.2237 72.3745 91.3451 72.3571Z" fill="#2B2B2B"/>
<path id="Vector_8" d="M97.4889 70.0795C97.5063 70.4621 97.3501 70.8098 97.055 71.0532C96.7079 71.2966 96.2741 71.4183 95.8402 71.401H95.5625L95.2675 72.7919H94.66L95.441 69.0537H96.2914C96.6038 69.0363 96.9162 69.1232 97.1765 69.3145C97.4022 69.5231 97.5063 69.8013 97.4889 70.0795ZM95.684 70.8793H95.927C96.1699 70.8967 96.4303 70.8272 96.6212 70.6707C96.7947 70.5316 96.8815 70.323 96.8641 70.0969C96.8815 69.9404 96.8294 69.8013 96.7079 69.697C96.5691 69.6101 96.4129 69.5579 96.2567 69.5753H95.9617L95.684 70.8793Z" fill="#2B2B2B"/>
<path id="Vector_9" d="M98.5128 72.844C98.2872 72.8613 98.079 72.757 97.9401 72.5831C97.7839 72.3745 97.7145 72.1137 97.7319 71.8529C97.7319 71.5225 97.7839 71.1922 97.9054 70.8792C98.0095 70.601 98.1657 70.3576 98.3913 70.1663C98.5823 69.9925 98.8252 69.9055 99.0682 69.9055C99.2244 69.9055 99.3632 69.9403 99.5021 70.0272C99.6236 70.1142 99.7277 70.2359 99.7798 70.375H99.8145L99.9707 69.9751H100.439L99.8318 72.8092H99.3632L99.4153 72.3571H99.3979C99.1376 72.6875 98.8426 72.844 98.5128 72.844ZM98.7384 72.3571C98.8946 72.3397 99.0508 72.2702 99.155 72.1659C99.2938 72.0094 99.4153 71.8355 99.4847 71.6269C99.5715 71.4008 99.6236 71.14 99.6236 70.8966C99.6236 70.7575 99.5889 70.6358 99.5021 70.5315C99.4153 70.4445 99.3112 70.3924 99.1897 70.3924C99.0335 70.3924 98.8773 70.4619 98.7905 70.5836C98.6517 70.7401 98.5475 70.914 98.4781 71.1226C98.4087 71.3487 98.3566 71.5747 98.3566 71.8181C98.3393 71.9572 98.3914 72.0963 98.4608 72.2006C98.5128 72.3223 98.617 72.3745 98.7384 72.3571Z" fill="#2B2B2B"/>
<path id="Vector_10" d="M102.557 69.9229C102.643 69.9229 102.747 69.9402 102.834 69.9576L102.695 70.514C102.609 70.4966 102.522 70.4792 102.435 70.4792C102.209 70.4792 102.001 70.5836 101.862 70.7574C101.689 70.9835 101.567 71.2443 101.515 71.5225L101.238 72.8091H100.647L101.255 69.975H101.723L101.671 70.4966H101.689C101.793 70.3228 101.949 70.1663 102.123 70.0619C102.244 69.9576 102.4 69.9229 102.557 69.9229Z" fill="#2B2B2B"/>
<path id="Vector_11" d="M103.685 72.844C103.459 72.8613 103.251 72.757 103.112 72.5831C102.956 72.3745 102.886 72.1137 102.904 71.8529C102.904 71.5225 102.956 71.1922 103.077 70.8792C103.181 70.601 103.338 70.3576 103.563 70.1663C103.754 69.9925 103.997 69.9055 104.257 69.9055C104.414 69.9055 104.552 69.9403 104.691 70.0272C104.813 70.1142 104.917 70.2359 104.969 70.375H105.004L105.16 69.9751H105.628L105.021 72.8092H104.552L104.605 72.3571H104.587C104.292 72.6875 103.997 72.844 103.685 72.844ZM103.893 72.3571C104.049 72.3397 104.205 72.2702 104.309 72.1659C104.448 72.0094 104.57 71.8355 104.639 71.6269C104.726 71.4008 104.778 71.14 104.778 70.8966C104.778 70.7575 104.743 70.6358 104.657 70.5315C104.57 70.4445 104.466 70.3924 104.344 70.3924C104.188 70.3924 104.032 70.4619 103.928 70.5836C103.789 70.7401 103.685 70.914 103.615 71.1226C103.546 71.3487 103.494 71.5747 103.494 71.8181C103.476 71.9572 103.511 72.0963 103.598 72.2006C103.667 72.305 103.789 72.3745 103.893 72.3571Z" fill="#2B2B2B"/>
<path id="Vector_12" d="M109.204 72.792H107.225L108.006 69.0537H109.985L109.88 69.5753H108.509L108.301 70.5838H109.585L109.481 71.1054H108.197L107.954 72.2703H109.342L109.204 72.792Z" fill="#2B2B2B"/>
<path id="Vector_13" d="M111.859 69.923C112.241 69.923 112.449 70.1317 112.501 70.5316H112.518C112.623 70.3403 112.779 70.1838 112.952 70.0795C113.109 69.9752 113.282 69.923 113.456 69.923C113.647 69.9056 113.837 69.9752 113.976 70.1143C114.098 70.2708 114.167 70.462 114.15 70.6707C114.15 70.8272 114.132 70.9837 114.098 71.1401L113.733 72.8093H113.143L113.508 71.088C113.542 70.9663 113.542 70.8619 113.56 70.7402C113.56 70.5142 113.456 70.4099 113.247 70.4099C113.039 70.4273 112.831 70.549 112.727 70.7228C112.553 70.9663 112.432 71.2619 112.38 71.5574L112.119 72.7919H111.512L111.876 71.0706C111.894 70.9663 111.911 70.8619 111.911 70.7402C111.911 70.5142 111.807 70.3925 111.616 70.3925C111.408 70.4099 111.199 70.5316 111.095 70.7228C110.922 70.9837 110.8 71.2792 110.748 71.5922L110.505 72.7919H109.898L110.505 69.9578H110.974L110.922 70.4794H110.939C111.217 70.0969 111.512 69.923 111.859 69.923Z" fill="#2B2B2B"/>
<path id="Vector_14" d="M115.92 72.8441C115.625 72.8441 115.347 72.6702 115.226 72.392H115.209C115.191 72.5485 115.174 72.705 115.139 72.8615L114.896 74.0612H114.306L115.174 69.9752H115.642L115.59 70.462H115.608C115.868 70.1143 116.163 69.923 116.493 69.923C116.718 69.9056 116.927 70.01 117.065 70.1838C117.222 70.3925 117.291 70.6533 117.274 70.9141C117.274 71.2445 117.222 71.5748 117.1 71.8878C116.996 72.166 116.84 72.4094 116.614 72.6007C116.423 72.7571 116.163 72.8441 115.92 72.8441ZM116.267 70.4099C116.111 70.4273 115.955 70.4968 115.851 70.6185C115.712 70.775 115.59 70.9489 115.521 71.1575C115.434 71.3835 115.399 71.6096 115.399 71.853C115.382 71.9921 115.434 72.1312 115.521 72.2355C115.608 72.3225 115.729 72.3746 115.851 72.3746C116.007 72.3746 116.163 72.2877 116.25 72.166C116.389 72.0095 116.475 71.8182 116.545 71.627C116.614 71.4009 116.649 71.1749 116.649 70.9315C116.649 70.5837 116.527 70.4099 116.267 70.4099Z" fill="#2B2B2B"/>
<path id="Vector_15" d="M119.547 69.9229C119.634 69.9229 119.738 69.9402 119.825 69.9576L119.686 70.514C119.599 70.4966 119.513 70.4792 119.426 70.4792C119.2 70.4792 118.992 70.5836 118.853 70.7574C118.68 70.9835 118.558 71.2443 118.506 71.5225L118.228 72.8091H117.621L118.228 69.975H118.697L118.645 70.4966H118.662C118.766 70.3228 118.922 70.1663 119.096 70.0619C119.235 69.9576 119.391 69.9229 119.547 69.9229Z" fill="#2B2B2B"/>
<path id="Vector_16" d="M120.953 72.8439C120.658 72.8613 120.38 72.757 120.172 72.5657C119.981 72.3571 119.877 72.0615 119.894 71.7659C119.894 71.4355 119.964 71.1226 120.085 70.827C120.207 70.5662 120.38 70.3227 120.623 70.1489C120.849 69.9924 121.109 69.9055 121.387 69.9055C121.613 69.8881 121.838 69.9576 122.029 70.0967C122.185 70.2184 122.272 70.4271 122.255 70.6183C122.255 70.9139 122.099 71.2095 121.821 71.3486C121.439 71.5399 121.023 71.6268 120.606 71.6094H120.502V71.6963V71.7659C120.485 71.9224 120.537 72.0789 120.641 72.218C120.745 72.3397 120.918 72.3918 121.075 72.3744C121.196 72.3744 121.318 72.3571 121.439 72.3223C121.595 72.2701 121.734 72.218 121.873 72.1484V72.6352C121.734 72.7048 121.578 72.757 121.422 72.7917C121.266 72.8265 121.109 72.8439 120.953 72.8439ZM121.335 70.3749C121.161 70.3749 120.988 70.4618 120.866 70.6009C120.71 70.7574 120.606 70.9661 120.554 71.1747H120.623C120.884 71.1921 121.144 71.14 121.37 71.0356C121.526 70.9661 121.63 70.827 121.647 70.6531C121.647 70.5836 121.63 70.4966 121.561 70.4445C121.508 70.3923 121.422 70.3749 121.335 70.3749Z" fill="#2B2B2B"/>
<path id="Vector_17" d="M124.389 71.9224C124.407 72.1832 124.285 72.444 124.094 72.6005C123.851 72.7744 123.556 72.8613 123.261 72.844C122.984 72.844 122.689 72.7918 122.446 72.6701V72.1485C122.689 72.2876 122.966 72.3745 123.244 72.3745C123.383 72.3745 123.522 72.3397 123.643 72.2702C123.747 72.218 123.799 72.0963 123.799 71.992C123.799 71.905 123.765 71.8355 123.712 71.7659C123.608 71.6616 123.487 71.5747 123.348 71.5225C123.174 71.4356 123.018 71.3139 122.897 71.1748C122.81 71.0531 122.758 70.8966 122.758 70.7575C122.741 70.5141 122.845 70.288 123.036 70.1315C123.244 69.9751 123.504 69.8881 123.782 69.9055C124.094 69.9055 124.389 69.9751 124.667 70.1142L124.476 70.5662C124.268 70.4445 124.042 70.375 123.799 70.375C123.695 70.375 123.591 70.3924 123.504 70.4619C123.435 70.5141 123.383 70.601 123.383 70.7053C123.383 70.7749 123.417 70.8618 123.47 70.914C123.574 71.0009 123.695 71.0878 123.817 71.14C123.955 71.2096 124.077 71.2965 124.198 71.4008C124.268 71.4704 124.337 71.5399 124.372 71.6442C124.372 71.7312 124.389 71.8355 124.389 71.9224Z" fill="#2B2B2B"/>
<path id="Vector_18" d="M125.761 72.844C125.535 72.8613 125.327 72.757 125.188 72.5831C125.032 72.3745 124.962 72.1137 124.98 71.8529C124.98 71.5225 125.032 71.1922 125.153 70.8792C125.257 70.601 125.413 70.3576 125.639 70.1663C125.83 69.9925 126.073 69.9055 126.316 69.9055C126.472 69.9055 126.611 69.9403 126.75 70.0272C126.871 70.1142 126.975 70.2359 127.027 70.375H127.062L127.218 69.9751H127.687L127.08 72.8092H126.611L126.663 72.3571H126.646C126.385 72.6875 126.09 72.844 125.761 72.844ZM125.986 72.3571C126.142 72.3397 126.299 72.2702 126.403 72.1659C126.541 72.0094 126.663 71.8355 126.732 71.6269C126.819 71.4008 126.871 71.14 126.871 70.8966C126.871 70.7575 126.837 70.6358 126.75 70.5315C126.663 70.4445 126.559 70.3924 126.437 70.3924C126.281 70.3924 126.125 70.4619 126.038 70.5836C125.899 70.7401 125.795 70.914 125.726 71.1226C125.656 71.3487 125.604 71.5747 125.604 71.8181C125.587 71.9572 125.639 72.0963 125.708 72.2006C125.761 72.3223 125.865 72.3745 125.986 72.3571Z" fill="#2B2B2B"/>
<path id="Vector_19" d="M129.769 71.9224C129.787 72.1832 129.665 72.444 129.474 72.6005C129.231 72.7744 128.936 72.8613 128.641 72.844C128.364 72.844 128.069 72.7918 127.826 72.6701V72.1485C128.069 72.2876 128.346 72.3745 128.624 72.3745C128.763 72.3745 128.902 72.3397 129.023 72.2702C129.127 72.218 129.179 72.0963 129.179 71.992C129.179 71.905 129.145 71.8355 129.093 71.7659C128.988 71.6616 128.867 71.5747 128.728 71.5225C128.555 71.4356 128.398 71.3139 128.277 71.1748C128.19 71.0531 128.138 70.8966 128.138 70.7575C128.121 70.5141 128.225 70.288 128.416 70.1315C128.624 69.9751 128.884 69.8881 129.145 69.9055C129.457 69.9055 129.752 69.9751 130.03 70.1142L129.839 70.5662C129.631 70.4445 129.405 70.375 129.162 70.375C129.058 70.375 128.954 70.3924 128.867 70.4619C128.798 70.5141 128.746 70.601 128.746 70.7053C128.746 70.7749 128.78 70.8618 128.832 70.914C128.936 71.0009 129.058 71.0878 129.179 71.14C129.318 71.2096 129.44 71.2965 129.561 71.4008C129.631 71.4704 129.683 71.5399 129.735 71.6442C129.752 71.7312 129.769 71.8355 129.769 71.9224Z" fill="#2B2B2B"/>
<path id="Vector_20" d="M67.1174 10.3893C65.8851 9.41557 64.0802 8.89395 61.5464 8.89395C60.4009 8.87657 59.2381 8.98089 58.11 9.20692C57.2943 9.43296 56.5133 9.79809 55.8365 10.3023C55.2638 10.737 54.8125 11.3282 54.5349 11.9889C54.2745 12.6322 54.1357 13.3103 54.153 14.0058V14.7187C54.0836 14.9099 54.2225 15.049 54.4134 15.049H57.5199C57.6588 15.0316 57.7629 14.9273 57.7803 14.7882C57.8323 14.0927 58.11 13.432 58.5613 12.9104C59.0819 12.3192 60.0538 12.0063 61.4769 12.0063C62.0844 11.9889 62.7091 12.0758 63.2819 12.2671C63.681 12.4236 64.0628 12.6322 64.3752 12.9104C64.8438 13.3799 65.1215 14.0058 65.1562 14.6665V15.5706C65.1562 15.8836 65.0868 16.1966 64.9653 16.4748C64.8612 16.7182 64.705 16.9442 64.5141 17.1181C64.3752 17.3094 64.2017 17.4485 63.9934 17.5702C63.8546 17.6745 63.6984 17.7614 63.5422 17.831C63.4728 17.9005 63.2124 17.9701 62.6918 18.1613C62.1711 18.3526 61.7199 18.5439 61.0778 18.7525C60.4356 18.9612 59.7761 19.135 59.134 19.3958C58.4918 19.6566 57.9018 19.7784 57.3811 19.987C56.3572 20.3174 55.5067 21.0128 54.9861 21.9344C54.4481 22.8211 54.153 23.8296 54.153 24.8554V26.8723C54.1878 27.4461 54.3092 28.0199 54.4828 28.5589C54.6911 29.2196 55.0729 29.7934 55.5762 30.2455C56.201 30.854 56.9472 31.2887 57.7803 31.5495C58.9778 31.9146 60.2274 32.0885 61.4769 32.0711C62.7265 32.1233 63.9761 31.9494 65.1736 31.5495C66.0066 31.2887 66.7876 30.8366 67.4298 30.2455C67.9504 29.7934 68.3322 29.2196 68.5405 28.5589C68.7487 28.0199 68.8529 27.4461 68.8702 26.8723V14.1623C68.8702 12.6844 68.2281 11.3108 67.1174 10.3893ZM64.3926 27.9677C63.8719 28.4893 62.8306 28.8023 61.4769 28.8023C60.1232 28.8023 59.1513 28.5415 58.6307 28.0199C58.058 27.3244 57.7803 26.455 57.8497 25.5509C57.8497 25.0988 57.9191 24.5772 58.1794 24.1947C58.3877 23.8643 58.6133 23.5514 58.891 23.2906C59.1513 23.0993 59.5331 22.9081 59.8629 22.6994C60.2447 22.5081 60.8348 22.369 61.286 22.1778C61.7373 21.9691 62.2232 21.7953 62.7091 21.6562C63.2298 21.5345 63.681 21.3258 64.1323 21.2041C64.3579 21.1346 64.5835 21.0302 64.7744 20.8737C65.0174 20.7346 65.1736 20.4912 65.2256 20.2304L65.1562 25.5509C65.2256 26.4203 64.948 27.2896 64.3926 27.9677Z" fill="#2B2B2B"/>
<path id="Vector_21" d="M50.5431 8.89394H52.6084C52.7472 8.91133 52.8514 9.01565 52.8687 9.15475V9.20691L52.1572 11.9367C52.1572 12.0758 52.0357 12.128 51.8968 12.128H50.4737C49.8316 12.1106 49.1894 12.2149 48.5994 12.4583C48.1828 12.6148 47.801 12.8582 47.506 13.1712C47.2804 13.4146 47.0895 13.6928 46.9853 14.0058C46.9159 14.284 46.8638 14.5622 46.8465 14.8404V31.706C46.8638 31.8798 46.725 32.0189 46.5688 32.0363C46.5514 32.0363 46.5514 32.0363 46.5341 32.0363H43.4275C43.2713 32.0189 43.1498 31.8798 43.1672 31.706V14.1449C43.1672 13.6928 43.2366 13.2234 43.3581 12.7887C43.4796 12.128 43.8093 11.5194 44.2606 11.0326C44.8853 10.3892 45.6316 9.86762 46.4647 9.53727C47.7489 9.03304 49.1547 8.807 50.5431 8.89394Z" fill="#2B2B2B"/>
<path id="Vector_22" d="M39.9912 26.0028V26.7852C39.9912 27.2721 39.9217 27.7415 39.8003 28.211C39.6614 28.8717 39.349 29.4629 38.8978 29.9671C38.273 30.6104 37.5267 31.132 36.6937 31.4624C35.392 31.9318 34.0036 32.1579 32.6152 32.1057C31.2268 32.1405 29.8384 31.9318 28.5367 31.4624C27.7037 31.1494 26.9401 30.6278 26.3326 29.9671C25.8814 29.4802 25.569 28.8717 25.4302 28.211C25.2913 27.7589 25.2913 27.3068 25.2393 26.8548V9.15458C25.2219 8.98071 25.3608 8.84161 25.5169 8.82422C25.5343 8.82422 25.5343 8.82422 25.5517 8.82422H28.5888C28.7624 8.80684 28.9012 8.94593 28.9186 9.11981C28.9186 9.13719 28.9186 9.13719 28.9186 9.15458V25.6377C28.9359 26.055 28.9706 26.4549 29.0574 26.8722C29.1615 27.2025 29.3524 27.5155 29.5781 27.7763C29.8731 28.1067 30.2549 28.3501 30.6714 28.4892C31.2962 28.6978 31.9557 28.8021 32.6152 28.8195C33.2921 28.8369 33.9863 28.7326 34.6284 28.4892C35.0449 28.3675 35.4268 28.1414 35.7218 27.8458C35.9821 27.6198 36.1557 27.3242 36.2424 26.9939C36.3813 26.5766 36.4334 26.1419 36.4334 25.6898V9.15458C36.416 8.9981 36.5375 8.84161 36.6937 8.82422H39.8003C39.9738 8.80684 40.1126 8.94593 40.13 9.11981C40.13 9.13719 40.13 9.13719 40.13 9.15458L39.9912 26.0028Z" fill="#2B2B2B"/>
<path id="Vector_23" d="M18.8179 0.513192H21.8551C22.0286 0.495805 22.1675 0.634903 22.1848 0.791388C22.1848 0.808775 22.1848 0.826162 22.1848 0.826162V31.7754C22.2022 31.9493 22.0633 32.0884 21.8898 32.1058C21.8724 32.1058 21.8724 32.1058 21.8551 32.1058H18.8179C18.6444 32.1232 18.5055 31.9841 18.4882 31.8102C18.4882 31.7928 18.4882 31.7928 18.4882 31.7754V0.826162C18.5576 0.634903 18.6791 0.513192 18.8179 0.513192Z" fill="#2B2B2B"/>
<path id="Vector_24" d="M0.751099 40.1734C0.768454 39.8605 1.01143 39.5997 1.34117 39.5823H5.03783C5.35022 39.5997 5.61055 39.8431 5.6279 40.1734V60.6556C5.61055 60.9685 5.36758 61.2294 5.03783 61.2467H1.34117C1.02878 61.2294 0.768454 60.9859 0.751099 60.6556V40.1734Z" fill="#2B2B2B"/>
<path id="Vector_25" d="M10.9039 39.843C10.9213 39.53 11.1816 39.2866 11.494 39.2866H12.2576L24.5798 51.1621H24.6145V40.1734C24.6145 39.843 24.8748 39.5822 25.2046 39.5822H28.9012C29.2136 39.5996 29.474 39.843 29.4913 40.1734V60.9859C29.474 61.2988 29.2136 61.5423 28.9012 61.5423H28.4153C28.2765 61.5249 28.1376 61.4727 28.0161 61.3858L15.8154 49.1104H15.7807V60.6555C15.7807 60.9859 15.5204 61.2467 15.1907 61.2467H11.5287C11.2163 61.2293 10.956 60.9859 10.9386 60.6555L10.9039 39.843Z" fill="#2B2B2B"/>
<path id="Vector_26" d="M44.382 39.2866C47.4712 39.2866 49.7621 40.2429 51.8447 42.1555C52.0877 42.3468 52.1224 42.7119 51.9315 42.9727C51.9141 42.9901 51.8968 43.0075 51.8794 43.0249L49.4671 45.546C49.2588 45.7547 48.9117 45.7547 48.7034 45.546C47.558 44.5376 46.0654 43.9638 44.5382 43.9638C41.0498 43.9638 38.4812 46.8674 38.4812 50.3275C38.4812 53.7702 41.0845 56.6043 44.5555 56.6043C46.0654 56.6043 47.5233 56.0827 48.6861 55.1264C48.9291 54.9351 49.2588 54.9525 49.4844 55.1611L51.8968 57.7171C52.105 57.9605 52.0877 58.3256 51.8621 58.5517C49.8489 60.499 47.1588 61.577 44.3646 61.5596C38.2209 61.5596 33.2573 56.5695 33.2573 50.4318C33.2573 44.2941 38.2383 39.2866 44.382 39.2866Z" fill="#2B2B2B"/>
<path id="Vector_27" d="M55.5762 40.1734C55.5762 39.8431 55.8365 39.5823 56.1663 39.5823H59.8455C60.1579 39.5997 60.4183 39.8431 60.4356 40.1734V56.6913H67.7769C68.1066 56.6913 68.3669 56.9521 68.3669 57.2825V60.6556C68.3669 60.9859 68.1066 61.2467 67.7769 61.2467H56.1663C55.8365 61.2467 55.5762 60.9859 55.5762 60.6556V40.1734Z" fill="#2B2B2B"/>
<path id="Vector_28" d="M70.7966 40.1734C70.814 39.8605 71.057 39.5997 71.3867 39.5823H75.1875C75.5172 39.5823 75.7776 39.8431 75.7776 40.1734V52.6922C75.7776 54.8656 77.3742 56.587 79.5784 56.587C81.7998 56.587 83.4312 54.8483 83.4312 52.6922V40.1734C83.4312 39.8431 83.6915 39.5823 84.0213 39.5823H87.8221C88.1344 39.5997 88.3948 39.8431 88.4121 40.1734V52.953C88.4121 57.6476 84.4552 61.5597 79.5784 61.5597C74.7363 61.5597 70.814 57.665 70.814 52.953L70.7966 40.1734Z" fill="#2B2B2B"/>
<path id="Vector_29" d="M93.3757 40.1734C93.3757 39.8605 93.6187 39.5997 93.9311 39.5823H101.463C107.416 39.5823 112.293 44.4333 112.293 50.3797C112.293 56.3783 107.433 61.2294 101.463 61.2294H93.9311C93.6187 61.212 93.3757 60.9512 93.3757 60.6382V40.1734ZM101.151 56.6739C104.639 56.6739 107.173 53.9267 107.173 50.3971C107.173 46.9023 104.639 44.1551 101.151 44.1551H98.1831V56.6739H101.151Z" fill="#2B2B2B"/>
<path id="Vector_30" d="M116.076 40.1734C116.076 39.8431 116.337 39.5823 116.666 39.5823H129.44C129.77 39.5823 130.03 39.8431 130.03 40.1734V43.5466C130.03 43.8769 129.77 44.1377 129.44 44.1377H120.884V47.9803H127.93C128.242 47.9977 128.503 48.2411 128.52 48.5715V51.9446C128.52 52.2749 128.26 52.5358 127.93 52.5358H120.884V56.7087H129.44C129.77 56.7087 130.03 56.9695 130.03 57.2998V60.673C130.03 61.0033 129.77 61.2641 129.44 61.2641H116.666C116.337 61.2641 116.076 61.0033 116.076 60.673V40.1734Z" fill="#2B2B2B"/>
<path id="Vector_31" d="M13.6981 10.3893C12.4659 9.41557 10.6609 8.89395 8.12707 8.89395C6.98163 8.87657 5.81883 8.98089 4.69074 9.20692C3.8577 9.39818 3.09407 9.7807 2.43457 10.3023C1.86185 10.737 1.41062 11.3282 1.13293 11.9889C0.872606 12.6322 0.75112 13.3103 0.75112 14.0058V14.7882C0.733765 14.9621 0.872606 15.1012 1.0288 15.1186C1.04616 15.1186 1.04616 15.1186 1.06351 15.1186H4.10067C4.23951 15.1012 4.34364 14.9969 4.361 14.8578C4.41306 14.1623 4.69074 13.5016 5.14198 12.9799C5.66263 12.3888 6.63452 12.0758 8.05765 12.0758C8.66508 12.0063 9.28987 12.0758 9.87994 12.2671C10.2791 12.4236 10.6609 12.6322 10.9733 12.9104C11.4419 13.3625 11.7196 14.0058 11.7543 14.6665V15.5706C11.7543 15.8836 11.6849 16.1966 11.5634 16.4748C11.4593 16.7182 11.3031 16.9442 11.1122 17.1181C10.9733 17.3094 10.7998 17.4485 10.5915 17.5702C10.4527 17.6745 10.2965 17.7614 10.1403 17.831C10.0709 17.9005 9.81052 17.9701 9.30722 18.1613C8.80392 18.3526 8.33533 18.5439 7.69319 18.7525C7.05105 18.9612 6.40891 19.135 5.74941 19.3958C5.08991 19.6566 4.49984 19.7784 3.97918 19.987C2.97258 20.3174 2.10482 21.0128 1.58417 21.9344C1.04616 22.8211 0.75112 23.8296 0.733765 24.8554V26.8549C0.768475 27.4287 0.889962 28.0025 1.06351 28.5415C1.27178 29.2022 1.65359 29.776 2.15689 30.2281C2.78168 30.8366 3.52795 31.2713 4.361 31.5321C5.5585 31.8972 6.80808 32.0711 8.05765 32.0537C9.30722 32.1059 10.5568 31.932 11.7543 31.5321C12.5874 31.2713 13.3683 30.8192 14.0278 30.2281C14.5485 29.776 14.9303 29.2022 15.1212 28.5415C15.3295 28.0025 15.4336 27.4287 15.451 26.8549V14.1449C15.451 12.6844 14.8088 11.3108 13.6981 10.3893ZM11.0427 27.9677C10.5221 28.4893 9.55019 28.8023 8.12707 28.8023C6.70395 28.8023 5.73206 28.5415 5.2114 28.0199C4.63868 27.3244 4.361 26.455 4.43042 25.5509C4.43042 25.0815 4.5519 24.612 4.74281 24.1947C4.95107 23.8643 5.17669 23.5688 5.45437 23.2906C5.7147 23.0993 6.09651 22.9081 6.42626 22.6994C6.80808 22.5081 7.39815 22.369 7.84939 22.1778C8.30062 21.9691 8.78657 21.7953 9.27251 21.6562C9.79317 21.5345 10.2444 21.3258 10.6956 21.2041C10.9213 21.1346 11.1469 21.0302 11.3378 20.8737C11.5808 20.7346 11.7369 20.4912 11.789 20.2304V25.5509C11.9105 26.4377 11.6155 27.307 11.0427 27.9677Z" fill="#2B2B2B"/>
</g>
</g>
<defs>
<clipPath id="clip0_30_5">
<rect width="130" height="74" fill="white"/>
</clipPath>
</defs>
</svg>
